<?xml version="1.0" encoding="UTF-8"?>
<svg width="368px" height="64px" viewBox="0 0 368 64" version="1.1" xmlns="http://www.w3.org/2000/svg" xmlns:xlink="http://www.w3.org/1999/xlink">
    <!-- Generator: Sketch 53 (72520) - https://sketchapp.com -->
    <title>title</title>
    <desc>Created with Sketch.</desc>
    <defs>
        <path d="M69.7356887,63.7364746 L58.0912863,52.1266968 L8.42323651,52.1266968 C3.77121144,52.1266968 1.6016173e-15,48.3666991 1.03190854e-15,43.7285068 L0,8.39819005 C4.62199776e-16,3.75999776 3.77121144,1.88086226e-15 8.42323651,1.02884016e-15 L61.2863071,0 C65.9383321,1.76818059e-16 69.7095436,3.75999776 69.7095436,8.39819005 L69.7095436,35.7846373 L69.7356887,63.7364746 Z" id="path-1"></path>
    </defs>
    <g id="index" stroke="none" stroke-width="1" fill="none" fill-rule="evenodd">
        <g id="Desktop-HD" transform="translate(-536.000000, -57.000000)">
            <g id="TITLE" transform="translate(537.000000, 57.000000)">
                <g id="logo" transform="translate(149.000000, 0.000000)">
                    <mask id="mask-2" fill="white">
                        <use xlink:href="#path-1"></use>
                    </mask>
                    <use id="shape" fill="#D8D8D8" xlink:href="#path-1"></use>
                    <g id="color" mask="url(#mask-2)">
                        <g transform="translate(34.854772, 33.013575) rotate(-90.000000) translate(-34.854772, -33.013575) translate(0.000000, -2.027149)" id="Rectangle-2">
                            <polygon fill="#FF5368" points="0 0 69.7095436 0 69.7095436 11.7013092 0 11.7013092"></polygon>
                            <polygon fill="#FF9753" points="0 11.6456342 69.7095436 11.6456342 69.7095436 23.3469434 0 23.3469434"></polygon>
                            <polygon fill="#F1E11E" points="0 23.2912683 69.7095436 23.2912683 69.7095436 34.9925775 0 34.9925775"></polygon>
                            <polygon fill="#7ED321" points="0 34.9369025 69.7095436 34.9369025 69.7095436 46.6382117 0 46.6382117"></polygon>
                            <polygon fill="#53BAFF" points="0 46.5825367 69.7095436 46.5825367 69.7095436 58.2838459 0 58.2838459"></polygon>
                            <polygon fill="#8F53FF" points="0 58.2281709 69.7095436 58.2281709 69.7095436 69.92948 0 69.92948"></polygon>
                        </g>
                    </g>
                    <polyline id="Path-3" stroke="#FFFFFF" stroke-width="5.76576577" mask="url(#mask-2)" points="20.9128631 24.0552018 32.0742229 35.9095023 50.8880856 15.9276018"></polyline>
                </g>
                <path d="M29.28,33.6 C30.848,38.848 30.848,43.104 27.392,42.528 C24.352,42.016 22.208,39.872 20.704,36.8 C18.624,38.624 16.192,40.16 13.376,41.312 L12.8,40.288 C15.36,38.88 17.76,37.024 19.84,34.656 C18.688,31.456 18.112,27.52 17.856,23.52 L11.744,23.52 L11.744,28.704 C13.44,28.16 15.072,27.584 16.608,26.976 L17.088,28.032 C15.52,29.12 13.696,30.144 11.744,31.04 L11.744,39.232 C11.744,42.752 8.736,43.616 3.072,40.864 L3.392,39.68 C8.512,40.544 9.024,40.256 9.024,38.336 L9.024,32.256 C6.976,33.088 4.832,33.824 2.72,34.432 L1.696,31.328 C4.16,30.848 6.624,30.24 9.024,29.536 L9.024,23.52 L2.144,23.52 L2.144,22.08 L9.024,22.08 L9.024,18.016 C7.04,18.4 4.96,18.72 2.88,18.944 L2.656,17.664 C7.584,16.576 11.36,15.328 14.528,13.376 L16.608,15.744 C15.232,16.384 13.568,16.928 11.744,17.376 L11.744,22.08 L17.76,22.08 C17.696,20.032 17.664,16.608 17.632,13.056 L20.448,13.056 C20.48,16.992 20.512,20.032 20.608,22.08 L29.824,22.08 L29.824,23.52 L20.672,23.52 C20.896,26.496 21.344,29.344 22.048,31.84 C23.392,29.856 24.512,27.584 25.408,24.992 L28.224,26.272 C26.944,29.28 25.184,32.096 22.976,34.56 C24,36.96 25.344,38.72 27.072,39.392 C28.128,39.808 28.224,39.392 28.128,33.6 L29.28,33.6 Z M28.384,18.784 L25.824,20.64 C24.832,18.688 23.36,16.256 22.112,14.496 L22.976,13.664 C24.864,15.008 27.008,17.088 28.384,18.784 Z M49.4759024,21.952 L49.4759024,26.176 L46.7239024,26.176 L46.7239024,20.512 L53.1559024,20.512 C52.8359024,19.36 52.3879024,17.952 51.9399024,16.864 L48.6439024,16.864 L48.3879024,15.744 C55.4919024,15.424 63.7799024,14.304 68.2599024,12.672 L71.3639024,15.008 C70.1799024,15.264 68.8679024,15.488 67.4279024,15.712 L69.9239024,16.704 C69.1879024,17.952 67.8439024,19.424 66.6919024,20.512 L73.3799024,20.512 L73.3799024,25.888 L70.7559024,25.888 C71.4279024,26.592 72.0359024,27.328 72.4519024,27.936 L70.1479024,29.536 C69.3159024,27.84 67.9719024,25.408 67.1399024,24.032 L67.9719024,23.36 C68.7399024,23.968 69.7319024,24.832 70.6279024,25.76 L70.6279024,21.952 L49.4759024,21.952 Z M65.1559024,20.512 C65.7959024,19.072 66.4999024,17.024 66.8199024,15.776 C64.6439024,16.096 62.3079024,16.32 59.9399024,16.48 C60.7719024,17.504 61.5719024,18.784 62.0839024,19.776 L60.3239024,20.512 L65.1559024,20.512 Z M53.5399024,16.832 C54.3399024,17.728 55.1079024,18.848 55.6839024,19.872 L54.1159024,20.512 L59.4919024,20.512 C59.2359024,19.36 58.8199024,17.76 58.4039024,16.608 C56.7399024,16.704 55.1079024,16.768 53.5399024,16.832 Z M63.2679024,24.736 L61.7959024,26.656 C60.6119024,25.472 59.2359024,24.128 58.0519024,23.136 L58.5639024,22.272 C59.9719024,22.752 61.8279024,23.616 63.2679024,24.736 Z M54.1159024,22.752 L56.7399024,22.752 L56.7399024,25.44 C56.7399024,26.56 56.8999024,27.072 58.4039024,27.168 C60.0039024,27.264 61.6999024,27.232 63.0119024,27.104 C64.5159024,26.944 64.6439024,26.464 64.7399024,23.744 L65.8919024,23.744 C66.8839024,27.776 66.7239024,29.088 63.6199024,29.376 C61.6039024,29.568 59.1079024,29.6 57.3159024,29.44 C54.3719024,29.184 54.1159024,28.384 54.1159024,26.4 L54.1159024,22.752 Z M48.0359024,28.32 C49.4759024,27.2 51.1399024,25.472 51.8439024,23.232 L52.9319024,23.584 C52.6439024,26.24 51.6199024,28.576 50.4359024,30.048 L48.0359024,28.32 Z M73.6039024,39.392 L72.2279024,42.592 C68.6439024,42.24 64.4519024,41.344 60.5799024,39.392 C57.2839024,40.928 52.9639024,42.144 46.9159024,42.912 L46.5639024,41.792 C51.7479024,40.896 55.5239024,39.552 58.3079024,38.112 C56.6759024,37.088 55.1719024,35.84 53.7959024,34.368 C51.6519024,36.256 49.1559024,37.792 46.9159024,38.688 L46.3079024,37.696 C50.0519024,35.488 53.1559024,31.872 54.4999024,29.216 L57.4119024,30.272 C57.0919024,30.752 56.7719024,31.232 56.3879024,31.68 L64.9639024,31.68 L65.9559024,31.136 L68.9639024,32.96 C67.3639024,34.752 65.6359024,36.448 63.2999024,37.888 C66.5319024,38.784 69.9879024,39.2 73.6039024,39.392 Z M54.5959024,33.632 C56.3559024,35.008 58.2759024,36.096 60.3239024,36.896 C62.3719024,35.584 63.7159024,34.24 64.7399024,33.12 L55.1079024,33.12 C54.9479024,33.28 54.7879024,33.472 54.5959024,33.632 Z M93.6398049,18.496 L93.6398049,23.264 L90.8238049,23.264 L90.8238049,17.056 L104.583805,17.056 C102.983805,15.936 100.807805,14.592 99.1118049,13.6 L99.5278049,12.512 C101.863805,13.024 104.935805,13.92 106.823805,14.88 L105.607805,17.056 L117.255805,17.056 L117.255805,23.264 L114.439805,23.264 L114.439805,18.496 L93.6398049,18.496 Z M109.511805,29.44 C111.623805,33.28 115.111805,35.904 118.375805,37.344 L116.455805,40.384 C113.159805,38.368 110.183805,34.944 108.455805,30.016 C107.911805,30.272 107.335805,30.56 106.759805,30.784 C107.367805,32.576 107.719805,34.432 107.751805,36.224 C107.847805,40.8 106.215805,42.56 103.495805,42.56 C102.343805,42.56 100.327805,41.92 98.6318049,40.832 L98.9838049,39.744 C100.391805,40.064 101.671805,40.224 102.503805,40.224 C104.647805,40.224 104.871805,38.976 104.871805,35.36 C104.871805,34.944 104.839805,34.464 104.807805,34.016 C102.439805,36.256 97.8318049,39.136 90.9518049,40.864 L90.5678049,39.776 C96.6478049,37.632 101.191805,34.528 104.295805,30.784 C104.135805,30.24 103.975805,29.664 103.783805,29.12 C100.551805,31.648 95.8158049,33.696 91.3038049,34.848 L90.9198049,33.76 C95.5918049,32.096 99.8158049,29.792 102.791805,26.72 C102.567805,26.272 102.343805,25.856 102.087805,25.472 C99.0478049,27.2 95.3678049,28.48 92.0398049,29.184 L91.7198049,28.096 C96.6158049,26.432 99.2078049,24.864 101.351805,22.88 L94.7918049,22.88 L94.7918049,21.44 L113.255805,21.44 L113.255805,22.88 L105.671805,22.88 C104.967805,23.552 104.135805,24.192 103.239805,24.768 C104.487805,26.176 105.511805,27.808 106.247805,29.536 C108.455805,27.904 110.279805,26.08 111.847805,24.16 L114.311805,26.048 C112.743805,27.328 111.175805,28.48 109.511805,29.44 Z" id="我愛家" fill="#6F6F6F" fill-rule="nonzero"></path>
                <path d="M276.28,33.6 C277.848,38.848 277.848,43.104 274.392,42.528 C271.352,42.016 269.208,39.872 267.704,36.8 C265.624,38.624 263.192,40.16 260.376,41.312 L259.8,40.288 C262.36,38.88 264.76,37.024 266.84,34.656 C265.688,31.456 265.112,27.52 264.856,23.52 L258.744,23.52 L258.744,28.704 C260.44,28.16 262.072,27.584 263.608,26.976 L264.088,28.032 C262.52,29.12 260.696,30.144 258.744,31.04 L258.744,39.232 C258.744,42.752 255.736,43.616 250.072,40.864 L250.392,39.68 C255.512,40.544 256.024,40.256 256.024,38.336 L256.024,32.256 C253.976,33.088 251.832,33.824 249.72,34.432 L248.696,31.328 C251.16,30.848 253.624,30.24 256.024,29.536 L256.024,23.52 L249.144,23.52 L249.144,22.08 L256.024,22.08 L256.024,18.016 C254.04,18.4 251.96,18.72 249.88,18.944 L249.656,17.664 C254.584,16.576 258.36,15.328 261.528,13.376 L263.608,15.744 C262.232,16.384 260.568,16.928 258.744,17.376 L258.744,22.08 L264.76,22.08 C264.696,20.032 264.664,16.608 264.632,13.056 L267.448,13.056 C267.48,16.992 267.512,20.032 267.608,22.08 L276.824,22.08 L276.824,23.52 L267.672,23.52 C267.896,26.496 268.344,29.344 269.048,31.84 C270.392,29.856 271.512,27.584 272.408,24.992 L275.224,26.272 C273.944,29.28 272.184,32.096 269.976,34.56 C271,36.96 272.344,38.72 274.072,39.392 C275.128,39.808 275.224,39.392 275.128,33.6 L276.28,33.6 Z M275.384,18.784 L272.824,20.64 C271.832,18.688 270.36,16.256 269.112,14.496 L269.976,13.664 C271.864,15.008 274.008,17.088 275.384,18.784 Z M304.827902,16.864 C303.867902,18.304 302.811902,19.808 301.787902,20.896 L306.299902,20.896 L306.299902,39.584 C306.299902,42.272 303.771902,43.744 298.683902,41.088 L298.939902,40 C303.035902,40.64 303.675902,40.576 303.675902,38.528 L303.675902,33.344 L297.307902,33.344 C297.051902,36.96 296.187902,40.192 293.403902,42.912 L292.475902,42.176 C294.299902,39.488 294.779902,36.032 294.779902,29.6 L294.779902,22.752 C294.267902,23.264 293.723902,23.744 293.179902,24.192 L292.411902,23.36 C294.747902,20.768 296.475902,16.544 297.179902,12.768 L300.187902,13.504 C299.867902,14.368 299.547902,15.2 299.195902,16 L301.691902,16 L302.395902,15.52 L304.827902,16.864 Z M306.459902,24.448 C309.819902,22.336 310.523902,19.264 310.619902,16.736 L306.971902,16.736 L306.971902,15.296 L319.739902,15.296 C319.611902,18.08 319.419902,20.128 319.131902,21.536 C318.651902,23.904 316.315902,24.32 312.795902,22.336 L313.179902,21.28 C316.059902,21.888 316.507902,21.696 316.667902,20.576 C316.795902,19.744 316.955902,18.08 316.987902,16.736 L313.339902,16.736 C313.147902,21.376 310.523902,23.936 307.003902,25.408 L306.459902,24.448 Z M298.491902,17.44 C297.851902,18.688 297.147902,19.84 296.379902,20.896 L300.283902,20.896 C300.859902,19.744 301.307902,18.528 301.659902,17.44 L298.491902,17.44 Z M299.227902,26.24 L299.227902,22.336 L297.403902,22.336 L297.403902,26.24 L299.227902,26.24 Z M301.787902,22.336 L301.787902,26.24 L303.675902,26.24 L303.675902,22.336 L301.787902,22.336 Z M315.355902,34.112 L321.019902,34.112 L321.019902,35.552 L315.355902,35.552 L315.355902,42.688 L312.603902,42.688 L312.603902,35.552 L306.715902,35.552 L306.715902,34.112 L312.603902,34.112 L312.603902,30.208 L309.595902,30.208 C308.955902,31.52 308.155902,32.768 307.259902,33.632 L306.363902,33.056 C307.483902,31.008 308.411902,27.552 308.795902,24.992 L311.259902,25.536 C311.067902,26.4 310.715902,27.552 310.235902,28.768 L312.603902,28.768 L312.603902,24 L315.355902,24 L315.355902,28.768 L320.155902,28.768 L320.155902,30.208 L315.355902,30.208 L315.355902,34.112 Z M299.227902,31.904 L299.227902,27.616 L297.403902,27.616 L297.403902,29.696 C297.403902,30.432 297.403902,31.168 297.371902,31.904 L299.227902,31.904 Z M301.787902,27.616 L301.787902,31.904 L303.675902,31.904 L303.675902,27.616 L301.787902,27.616 Z M354.559805,26.176 C353.503805,23.84 352.767805,21.056 352.287805,18.112 L337.119805,18.112 L337.119805,16.672 L352.063805,16.672 C351.903805,15.392 351.807805,14.112 351.711805,12.8 L354.463805,12.8 C354.527805,14.112 354.655805,15.392 354.815805,16.672 L360.127805,16.672 C358.975805,15.744 357.503805,14.624 356.351805,13.792 L356.863805,12.704 C358.527805,13.216 360.639805,13.952 362.335805,15.008 L361.151805,16.672 L365.279805,16.672 L365.279805,18.112 L355.007805,18.112 C355.359805,20.256 355.839805,22.24 356.511805,23.968 C357.631805,22.528 358.623805,20.96 359.455805,19.232 L361.951805,20.608 C360.703805,22.944 359.231805,24.8 357.631805,26.336 C358.751805,28.16 360.159805,29.44 361.951805,29.792 C362.911805,29.984 363.103805,29.408 363.071805,25.248 L364.159805,25.248 C365.215805,29.44 365.407805,32.96 362.495805,32.704 C359.487805,32.448 357.247805,30.688 355.583805,28.064 C352.991805,30.016 350.239805,31.2 347.743805,32 L347.263805,30.944 C350.207805,29.696 352.575805,28.096 354.559805,26.176 Z M339.039805,19.968 L350.207805,19.968 L350.207805,26.24 L339.039805,26.24 L339.039805,19.968 Z M347.647805,24.896 L347.647805,21.312 L341.663805,21.312 L341.663805,24.896 L347.647805,24.896 Z M338.399805,31.552 L337.695805,28.832 C341.759805,28.512 348.191805,27.488 351.455805,26.688 L351.775805,27.776 C348.607805,29.248 342.111805,30.912 338.399805,31.552 Z M353.631805,37.504 C352.063805,35.808 350.623805,34.368 349.215805,32.992 L349.791805,32.032 C351.423805,32.736 353.503805,33.888 355.391805,35.424 L353.631805,37.504 Z M356.927805,34.432 L358.079805,34.432 C359.487805,39.808 358.591805,41.12 355.455805,41.408 C353.375805,41.6 350.623805,41.6 348.639805,41.472 C344.639805,41.216 344.191805,40.544 344.191805,38.08 L344.191805,32.608 L347.007805,32.608 L347.007805,36.704 C347.007805,38.144 347.199805,38.784 348.927805,38.912 C351.007805,39.072 353.311805,39.04 355.103805,38.816 C356.671805,38.624 356.863805,38.24 356.927805,34.432 Z M360.095805,33.28 C362.239805,34.912 363.999805,37.024 365.503805,39.136 L363.327805,40.768 C361.919805,38.272 360.799805,36.416 359.231805,34.144 L360.095805,33.28 Z M336.767805,39.744 C339.167805,37.952 340.415805,36.512 341.503805,33.312 L342.623805,33.536 C342.495805,36.672 341.023805,39.776 338.943805,41.888 L336.767805,39.744 Z" id="我解惑" fill="#6F6F6F" fill-rule="nonzero"></path>
            </g>
        </g>
    </g>
</svg>